<svg width="24" height="24" viewBox="0 0 24 24" fill="none" xmlns="http://www.w3.org/2000/svg">
<path fill-rule="evenodd" clip-rule="evenodd" d="M12.9441 7.32557L12.6043 7.74157L12.5992 7.74022L12.5948 7.73901L12.511 7.22374C12.5014 7.1147 12.4099 7.02918 12.2985 7.02918H11.7014H11.6996C11.5967 7.02902 11.5061 7.1035 11.489 7.2083L11.4896 7.20837L11.4033 7.73901L11.3987 7.74022L11.3938 7.74157L11.0642 7.33805C11.0016 7.24781 10.8791 7.21917 10.7824 7.27501L10.7829 7.27581L10.2815 7.56526C10.1802 7.6115 10.1308 7.72917 10.1709 7.83485L10.1714 7.8347L10.3621 8.33781L10.3586 8.34117L10.3554 8.34446L9.86608 8.15893C9.76712 8.11325 9.64776 8.14981 9.59216 8.24605L9.59272 8.24693L9.30344 8.74805C9.23896 8.83877 9.25496 8.96525 9.34248 9.03669L9.34328 9.03646L9.7592 9.37613L9.75784 9.38117L9.75664 9.38565L9.24144 9.4695C9.1324 9.47902 9.04688 9.57053 9.04688 9.68197V10.2791V10.2809C9.04672 10.3837 9.1212 10.4744 9.226 10.4914L9.22608 10.4909L9.75655 10.5772L9.75784 10.5818L9.7592 10.5868L9.35576 10.9163C9.26552 10.9789 9.23688 11.1013 9.2928 11.1981L9.29359 11.1976L9.58304 11.6989C9.62928 11.8002 9.74696 11.8497 9.85264 11.8096L9.85248 11.8091L10.3556 11.6184L10.359 11.6218L10.3622 11.625L10.1767 12.1144C10.131 12.2133 10.1676 12.3327 10.2638 12.3883L10.2647 12.3877L10.7658 12.677C10.8566 12.7415 10.983 12.7255 11.0545 12.638L11.0542 12.6372L11.394 12.2212L11.399 12.2225L11.4035 12.2237L11.4874 12.739C11.4969 12.8481 11.5884 12.9335 11.6998 12.9335H12.297H12.2987C12.4016 12.9337 12.4922 12.8592 12.5093 12.7544L12.5087 12.7543L12.595 12.2238L12.5997 12.2225L12.6046 12.2212L12.9342 12.6246C12.9967 12.7149 13.1192 12.7435 13.2159 12.6876L13.2154 12.6868L13.7168 12.3973C13.8181 12.3511 13.8675 12.2334 13.8274 12.1277L13.827 12.1279L13.6362 11.6248L13.6397 11.6214L13.6429 11.6182L14.1322 11.8037C14.2312 11.8493 14.3506 11.8128 14.4062 11.7165L14.4056 11.7157L14.6949 11.2145C14.7594 11.1238 14.7434 10.9973 14.6558 10.9259L14.655 10.9261L14.239 10.5864L14.2404 10.5813L14.2416 10.5769L14.7569 10.493C14.8659 10.4835 14.9514 10.392 14.9514 10.2805V9.68342V9.68165C14.9515 9.57877 14.877 9.48813 14.7722 9.47109L14.7722 9.47165L14.2417 9.38534L14.2404 9.38069L14.239 9.37573L14.6425 9.04621C14.7327 8.98365 14.7614 8.86118 14.7054 8.76446L14.7046 8.76493L14.4152 8.26357C14.369 8.16229 14.2513 8.11285 14.1456 8.15293L14.1458 8.15341L13.6426 8.34413L13.6393 8.34069L13.636 8.3375L13.8215 7.84813C13.8672 7.74917 13.8306 7.62982 13.7344 7.57422L13.7335 7.57478L13.2324 7.28549C13.1417 7.22101 13.0152 7.23701 12.9438 7.32453L12.944 7.32533L12.9441 7.32557ZM11.999 8.47389C12.4153 8.47389 12.7922 8.64262 13.065 8.9155C13.3378 9.1883 13.5066 9.56526 13.5066 9.9815C13.5066 10.3977 13.3379 10.7747 13.065 11.0475C12.7922 11.3203 12.4153 11.4891 11.999 11.4891C11.5828 11.4891 11.2058 11.3204 10.933 11.0475C10.6602 10.7747 10.4914 10.3977 10.4914 9.9815C10.4914 9.56526 10.6602 9.1883 10.933 8.9155C11.2058 8.6427 11.5828 8.47389 11.999 8.47389Z" fill="#F7E4E4"/>
<path fill-rule="evenodd" clip-rule="evenodd" d="M21.7896 14.8213H2.63833V4.64728C2.63833 4.36707 2.86695 4.13858 3.14704 4.13858H21.2807C21.5609 4.13858 21.7894 4.36719 21.7894 4.64728V14.8213H21.7896ZM3.14716 17.7594H9.65918V19.3566H8.43469C7.84508 19.3566 7.36294 19.8389 7.36294 20.4284C7.36294 21.0185 7.8446 21.5001 8.43469 21.5001H15.8691C16.4581 21.5001 16.9408 21.0176 16.9408 20.4284C16.9408 19.8394 16.4583 19.3566 15.8691 19.3566H14.6447V17.7594H21.2809C21.9109 17.7594 22.428 17.2428 22.428 16.6123V16.157V4.64728C22.428 4.0172 21.9114 3.50012 21.2809 3.50012H3.14716C2.51708 3.50012 2 4.01673 2 4.64728V16.157V16.6123C2 17.2423 2.5166 17.7594 3.14716 17.7594Z" fill="#F7E4E4"/>
</svg>
