<svg width="24" height="24" viewBox="0 0 24 24" fill="none" xmlns="http://www.w3.org/2000/svg">
<path d="M19.9572 4.26746H4.04219C3.74708 4.27238 3.46573 4.39307 3.25879 4.60352C3.05185 4.81396 2.9359 5.09731 2.93594 5.39246V15.8062C2.93543 15.9129 2.95618 16.0185 2.99699 16.1171C3.0378 16.2156 3.09784 16.305 3.17361 16.3801C3.24937 16.4552 3.33934 16.5144 3.43826 16.5543C3.53717 16.5942 3.64304 16.614 3.74969 16.6125H20.2497C20.3554 16.6125 20.46 16.5916 20.5577 16.551C20.6553 16.5104 20.7439 16.451 20.8185 16.3761C20.893 16.3012 20.9521 16.2123 20.9922 16.1145C21.0323 16.0167 21.0527 15.9119 21.0522 15.8062V5.37746C21.0484 5.08682 20.9323 4.80892 20.7282 4.60199C20.524 4.39507 20.2477 4.27518 19.9572 4.26746ZM11.9997 4.53371C12.0933 4.53296 12.185 4.56004 12.2632 4.61151C12.3414 4.66297 12.4025 4.7365 12.4389 4.82277C12.4752 4.90904 12.4851 5.00416 12.4673 5.09607C12.4495 5.18797 12.4048 5.27251 12.3389 5.33897C12.2729 5.40542 12.1888 5.4508 12.097 5.46933C12.0052 5.48787 11.9101 5.47874 11.8235 5.44309C11.7369 5.40744 11.6629 5.34688 11.6108 5.2691C11.5587 5.19132 11.5309 5.09982 11.5309 5.00621C11.5309 4.88154 11.5802 4.76192 11.668 4.67342C11.7558 4.58491 11.875 4.5347 11.9997 4.53371ZM20.3172 15.1762H3.68219V5.70371H20.3172V15.1762ZM14.5797 17.0437C14.5188 17.3032 14.3718 17.5345 14.1628 17.6999C13.9538 17.8654 13.695 17.9552 13.4284 17.955H10.5709C10.3044 17.9552 10.0456 17.8654 9.83654 17.6999C9.62753 17.5345 9.48062 17.3032 9.41969 17.0437H0.460938C0.460937 17.7562 0.7437 18.4395 1.24713 18.9436C1.75056 19.4477 2.43349 19.7315 3.14594 19.7325H20.8534C21.5659 19.7315 22.2488 19.4477 22.7522 18.9436C23.2557 18.4395 23.5384 17.7562 23.5384 17.0437H14.5797Z" fill="#92BDFF"/>
</svg>
