<svg width="24" height="24" viewBox="0 0 24 24" fill="none" xmlns="http://www.w3.org/2000/svg">
<g clip-path="url(#clip0_2258_1045)">
<path d="M20.4813 17.3074L15.9842 12.8132C15.9713 12.7994 15.9557 12.7884 15.9383 12.7808C15.921 12.7731 15.9023 12.769 15.8834 12.7688C15.8645 12.7685 15.8457 12.772 15.8281 12.7792C15.8106 12.7863 15.7947 12.7969 15.7813 12.8103L15.6666 12.9191C15.4284 13.1574 15.0431 13.1574 14.8048 12.9191C14.5695 12.6838 14.5695 12.2956 14.8078 12.0574L14.9166 11.9456C14.9425 11.9174 14.9566 11.8804 14.956 11.8421C14.9555 11.8038 14.9403 11.7672 14.9136 11.7397L14.6901 11.5191L11.5166 14.6927L11.7431 14.9162C11.7695 14.9456 11.8166 14.9574 11.846 14.9603C11.8872 14.9603 11.9254 14.9427 11.9519 14.9132L12.0548 14.8044C12.296 14.5721 12.6989 14.5809 12.9225 14.8044C13.1607 15.0427 13.1607 15.4309 12.9225 15.6662L12.8107 15.775C12.7832 15.8026 12.7675 15.8398 12.7669 15.8788C12.7664 15.9178 12.781 15.9555 12.8078 15.9838L17.3048 20.4838C17.5813 20.7574 17.9431 20.8956 18.3078 20.8956C18.6695 20.8956 19.0313 20.7574 19.3048 20.4838L20.4813 19.3074C20.7489 19.0397 20.896 18.6838 20.896 18.3074C20.896 17.9309 20.7489 17.575 20.4813 17.3074ZM7.50777 6.10443C7.47487 6.07041 7.45597 6.02526 7.45482 5.97795C7.45482 5.92795 7.47541 5.88384 7.50777 5.84854C7.60777 5.74854 7.65777 5.61031 7.646 5.46913C7.6313 5.32796 7.55777 5.20148 7.44012 5.12207L4.75482 3.28384C4.56659 3.15443 4.31365 3.17795 4.15188 3.33972L3.34012 4.15148C3.1813 4.31031 3.15777 4.56325 3.28424 4.75148L5.11953 7.44266C5.19894 7.56031 5.32541 7.63384 5.46659 7.64854C5.61071 7.66031 5.746 7.61031 5.85188 7.50737C5.91953 7.43972 6.03718 7.43678 6.10482 7.50737L10.1931 11.5985L11.5989 10.1927L7.50777 6.10443Z" fill="#F4D564"/>
<path d="M6.1794 21.2648C6.12352 21.2648 6.06763 21.2636 6.01146 21.2606C5.87445 21.2546 5.74224 21.2084 5.63131 21.1277C5.52039 21.0471 5.43564 20.9356 5.38763 20.8071C5.3361 20.6773 5.32387 20.5352 5.35248 20.3985C5.38108 20.2618 5.44926 20.1365 5.54852 20.0383L6.4641 19.123C6.60177 18.9846 6.70113 18.8128 6.75243 18.6245C6.80373 18.4361 6.80522 18.2377 6.75675 18.0486C6.70657 17.8549 6.60557 17.6782 6.4642 17.5367C6.32283 17.3952 6.14622 17.294 5.95263 17.2436C5.76307 17.1944 5.56397 17.1955 5.37496 17.2468C5.18594 17.298 5.01353 17.3975 4.87469 17.5356L3.96234 18.4483C3.86411 18.5478 3.73875 18.6161 3.60192 18.6448C3.46508 18.6735 3.32282 18.6612 3.19293 18.6095C3.06448 18.5613 2.95304 18.4765 2.8725 18.3654C2.79195 18.2544 2.74587 18.1221 2.73999 17.9851C2.71786 17.5042 2.79626 17.0239 2.97016 16.5751C3.14407 16.1262 3.40966 15.7185 3.74999 15.378C4.75057 14.3774 6.26704 14.0918 7.55528 14.6536L14.6535 7.55388C14.0918 6.26653 14.377 4.74976 15.3773 3.74858C15.7184 3.40764 16.1269 3.14172 16.5767 2.96789C17.0265 2.79407 17.5077 2.71616 17.9894 2.73917C18.2718 2.75329 18.5112 2.92682 18.6135 3.1927C18.7179 3.46329 18.6562 3.7577 18.4523 3.96153L17.537 4.87682C17.3973 5.0166 17.2969 5.19083 17.2461 5.38187C17.1953 5.57291 17.1958 5.77398 17.2477 5.96473C17.2996 6.15549 17.401 6.32915 17.5415 6.46813C17.6821 6.60712 17.8569 6.70651 18.0482 6.75623C18.2378 6.80551 18.437 6.80449 18.6261 6.75327C18.8152 6.70205 18.9876 6.60241 19.1265 6.46417L20.0388 5.55153C20.137 5.45206 20.2623 5.38373 20.3991 5.35506C20.5359 5.3264 20.6781 5.33867 20.8079 5.39035C20.9364 5.43839 21.0479 5.52324 21.1285 5.63429C21.2091 5.74535 21.2551 5.87768 21.2609 6.01476C21.283 6.49565 21.2046 6.97587 21.0307 7.42476C20.8568 7.87365 20.5912 8.28135 20.2509 8.62182C19.25 9.623 17.7332 9.908 16.4459 9.34623L9.34763 16.4459C9.9094 17.7333 9.6241 19.2501 8.62381 20.2512C7.97536 20.8992 7.09614 21.2637 6.1794 21.2648Z" fill="#F4D564"/>
</g>
<defs>
<clipPath id="clip0_2258_1045">
<rect width="20" height="20" fill="white" transform="translate(2 2)"/>
</clipPath>
</defs>
</svg>
