<svg width="24" height="24" viewBox="0 0 24 24" fill="none" xmlns="http://www.w3.org/2000/svg">
<path d="M12 20C12.5523 20 13 19.5523 13 19C13 18.4477 12.5523 18 12 18C11.4477 18 11 18.4477 11 19C11 19.5523 11.4477 20 12 20Z" fill="#9EF5EC"/>
<path d="M12.0005 13.9999C10.7062 13.9999 9.46234 14.5018 8.53046 15.3999C8.33951 15.5843 8.2296 15.8369 8.22491 16.1023C8.22022 16.3676 8.32114 16.624 8.50546 16.8149C8.68979 17.0059 8.94242 17.1158 9.20779 17.1205C9.47315 17.1252 9.72951 17.0243 9.92046 16.8399C10.4884 16.3199 11.2305 16.0315 12.0005 16.0315C12.7705 16.0315 13.5126 16.3199 14.0805 16.8399C14.2714 17.0243 14.5278 17.1252 14.7931 17.1205C15.0585 17.1158 15.3111 17.0059 15.4955 16.8149C15.6798 16.624 15.7807 16.3676 15.776 16.1023C15.7713 15.8369 15.6614 15.5843 15.4705 15.3999C14.5386 14.5018 13.2947 13.9999 12.0005 13.9999ZM12.0005 8.99994C10.7927 9.00074 9.5974 9.24463 8.48585 9.71708C7.37429 10.1895 6.36921 10.8809 5.53046 11.7499C5.4392 11.8465 5.36783 11.96 5.32045 12.0841C5.27306 12.2082 5.25059 12.3404 5.2543 12.4732C5.25802 12.606 5.28785 12.7368 5.3421 12.858C5.39634 12.9793 5.47394 13.0887 5.57046 13.1799C5.7654 13.3643 6.02557 13.4636 6.29375 13.4561C6.42654 13.4524 6.55729 13.4226 6.67855 13.3683C6.79981 13.3141 6.9092 13.2365 7.00046 13.1399C7.65345 12.4625 8.43632 11.9236 9.30228 11.5555C10.1682 11.1875 11.0995 10.9978 12.0405 10.9978C12.9814 10.9978 13.9127 11.1875 14.7786 11.5555C15.6446 11.9236 16.4275 12.4625 17.0805 13.1399C17.1731 13.2344 17.2835 13.3096 17.4054 13.3611C17.5273 13.4126 17.6582 13.4394 17.7905 13.4399C17.9859 13.4392 18.1768 13.3812 18.3396 13.2731C18.5025 13.1651 18.6301 13.0117 18.7066 12.8319C18.7832 12.6521 18.8055 12.4538 18.7706 12.2615C18.7358 12.0692 18.6453 11.8914 18.5105 11.7499C17.667 10.876 16.6555 10.1819 15.5367 9.70924C14.4179 9.23663 13.215 8.99535 12.0005 8.99994Z" fill="#9EF5EC"/>
<path d="M21.7199 7.92994C19.1103 5.41252 15.6258 4.00574 11.9999 4.00574C8.37397 4.00574 4.88947 5.41252 2.27989 7.92994C2.11113 8.1176 2.01957 8.36213 2.02356 8.61447C2.02756 8.86682 2.12683 9.10832 2.30145 9.29054C2.47607 9.47275 2.71313 9.5822 2.96508 9.59693C3.21703 9.61166 3.46523 9.53057 3.65989 9.36994C5.89749 7.20707 8.88784 5.99806 11.9999 5.99806C15.112 5.99806 18.1023 7.20707 20.3399 9.36994C20.5253 9.54863 20.7724 9.64892 21.0299 9.64994C21.1646 9.64943 21.2978 9.62171 21.4215 9.56844C21.5453 9.51517 21.6569 9.43745 21.7499 9.33994C21.9322 9.14865 22.0314 8.89296 22.0258 8.62876C22.0202 8.36455 21.9102 8.11331 21.7199 7.92994Z" fill="#9EF5EC"/>
</svg>
